<svg xmlns="http://www.w3.org/2000/svg" width="933.01" height="927.48" viewBox="0 0 933.01 927.48"><title>Artboard 1</title><circle cx="469.27" cy="463.74" r="463.74" style="fill:#fff"/><path d="M460.81,646.29q-42.45,31.05-119.3,31.1h126.3v-36.7C465.61,642.59,463.31,644.49,460.81,646.29Z" style="fill:#010101"/><path d="M311,420.59c18.3,0,32.2-3,41.8-9.1s14.3-15.5,14.3-28.1v-1.2c0-11.8-4.5-20.8-13.4-27.1s-22.4-9.5-40.3-9.5h-76.9v75Z" style="fill:#010101"/><path d="M456.21,288.89a92.29,92.29,0,0,1,11.6,14.2v-52.7H339.91q40.2,0,68.8,9.8T456.21,288.89Z" style="fill:#010101"/><path d="M370.21,572.09c9.8-6.7,14.6-16.4,14.6-29v-1.2c0-11.8-4.7-21.1-14-28.1s-24-10.4-43.9-10.4h-90.3v78.7h91.5v.1C346.41,582.19,360.41,578.79,370.21,572.09Z" style="fill:#010101"/><rect x="105.11" y="250.39" width="16.2" height="427" style="fill:#010101"/><rect x="105.11" y="677.39" width="362.7" height="9" style="fill:#010101"/><rect x="105.11" y="241.09" width="362.7" height="9.3"/><path d="M792.81,584a204.2,204.2,0,0,0,27.6-56.2,212.56,212.56,0,0,0,9.6-64.1v-1.2a210.14,210.14,0,0,0-17.1-84.4,215.22,215.22,0,0,0-47-68.8q-29.85-29.25-71.3-46.4c-27.5-11.5-57.5-17.2-89.8-17.2s-62.2,5.7-89.8,17.1a225.58,225.58,0,0,0-71.8,46.7,214.62,214.62,0,0,0-47.6,69.5,212.28,212.28,0,0,0-17.1,84.7v1.2a210.14,210.14,0,0,0,17.1,84.4,215.22,215.22,0,0,0,47,68.8c19.9,19.6,43.7,35,71.3,46.4s57.5,17.1,89.8,17.1a228.68,228.68,0,0,0,68.2-9.9,239.57,239.57,0,0,0,59.3-27.3l46,41.3,58.7-65.3Zm-81.4-117.9a120.23,120.23,0,0,1-6.6,40.7l-56.9-51.5-58.7,65.8,58.1,49.7a118.81,118.81,0,0,1-42.7,7.8c-16,0-30.6-3-43.8-9.2a105.85,105.85,0,0,1-34-24.8,112,112,0,0,1-22-36.2,119.32,119.32,0,0,1-7.9-43.4v-1.2a124,124,0,0,1,7.5-43.1,110,110,0,0,1,21.6-35.9,106.4,106.4,0,0,1,33.6-24.8c13-6.2,27.4-9.3,43.4-9.3a103.61,103.61,0,0,1,44,9.3,106.87,106.87,0,0,1,34.5,25.1,114.29,114.29,0,0,1,22.2,36.5,121.4,121.4,0,0,1,7.8,43.4v1.1Z" style="fill:#010101"/></svg>