<svg xmlns="http://www.w3.org/2000/svg" width="730.79" height="445.3" viewBox="0 0 730.79 445.3"><title>Artboard 1</title><path d="M313,213.09q29.46,9.58,49.74,25.64V174.34c-.88,1.24-1.79,2.47-2.74,3.65Q341.56,200.79,313,213.09Z" style="fill:#010101"/><path d="M205.91,179.49c18.3,0,32.2-3,41.8-9.1s14.3-15.5,14.3-28.1v-1.2c0-11.8-4.5-20.8-13.4-27.1s-22.4-9.5-40.3-9.5h-76.9v75Z" style="fill:#010101"/><path d="M351.11,47.79A92.46,92.46,0,0,1,362.75,62V9.29H234.81q40.2,0,68.8,9.8T351.11,47.79Z" style="fill:#010101"/><path d="M265.11,331c9.8-6.7,14.6-16.4,14.6-29v-1.2c0-11.8-4.7-21.1-14-28.1s-24-10.4-43.9-10.4h-90.3V341H223v.1C241.31,341.09,255.31,337.69,265.11,331Z" style="fill:#010101"/><path d="M355.71,405.19q-42.45,31.05-119.3,31.1H362.75V399.62C360.5,401.54,358.17,403.4,355.71,405.19Z" style="fill:#010101"/><rect y="9.29" width="16.21" height="427" style="fill:#010101"/><path d="M687.7,342.86a203.77,203.77,0,0,0,27.58-56.23,213.39,213.39,0,0,0,9.62-64.1v-1.17q0-44.91-17.08-84.41a214.94,214.94,0,0,0-47-68.8q-29.88-29.3-71.26-46.43T499.75,4.65q-48.44,0-89.81,17.07A225.46,225.46,0,0,0,338.1,68.44a213.88,213.88,0,0,0-64.68,154.19v1.18q0,44.91,17.08,84.41a214.94,214.94,0,0,0,47,68.8q29.88,29.44,71.25,46.42t89.81,17.08a229.44,229.44,0,0,0,68.21-9.91,238.26,238.26,0,0,0,59.29-27.29l46,41.33,58.69-65.27ZM606.34,225c0,14.82-2.16,28.36-6.58,40.73l-56.92-51.53-58.7,65.86,58.11,49.66a118.89,118.89,0,0,1-42.7,7.76c-16,0-30.62-3.05-43.77-9.23a105.15,105.15,0,0,1-34-24.83,113.23,113.23,0,0,1-22-36.22A119.3,119.3,0,0,1,392,223.81v-1.18a123.62,123.62,0,0,1,7.46-43.08A109.52,109.52,0,0,1,421,143.62a107,107,0,0,1,33.57-24.83c13-6.18,27.38-9.32,43.38-9.32a103.62,103.62,0,0,1,44,9.32,106.28,106.28,0,0,1,34.45,25.13,113.5,113.5,0,0,1,22.18,36.51,121.16,121.16,0,0,1,7.76,43.38Z" style="fill:#010101"/><rect y="436.29" width="362.75" height="9" style="fill:#010101"/><rect y="436.29" width="362.75" height="9" style="fill:#010101"/><rect y="445.29" width="362.75" height="0.01" style="fill:#010101"/><rect width="362.75" height="9.29"/><rect x="362.75" width="368.05" height="4.65" style="fill:#fff"/></svg>